# xmcd CD database file
#
# Track frame offsets:
#	150
#	18022
#	34754
#	44160
#	63188
#	78415
#	94612
#	114033
#	123145
#	147886
#
# Disc length: 2164 seconds
#
# Revision: 7
# Processed by: cddbd v1.5.2PL0 Copyright (c) Steve Scherf et al.
# Submitted via: CDex 1.51
#
DISCID=7208720a
DTITLE=Bill Withers - Greatest Hits
DYEAR=1980
DGENRE=Soul
TTITLE0=Just the two of us
TTITLE1=Use me
TTITLE2=Ain't no sunshine
TTITLE3=Lovely day
TTITLE4=I want to spend the night
TTITLE5=Soul shadows
TTITLE6=Lean on me
TTITLE7=Grandma's hands
TTITLE8=Hello like before
TTITLE9=Who is he, what is he to you?
EXTD=YEAR: 1980
EXTT0=
EXTT1=
EXTT2=
EXTT3=
EXTT4=
EXTT5=
EXTT6=
EXTT7=
EXTT8=
EXTT9=
PLAYORDER=
